/* XPM */
static char * dial_dim_xpm[] = {
"56 31 7 1",
" 	c #00000000FFFF",
".	c #000000000000",
"X	c #000049244103",
"o	c #96589A699658",
"O	c #FFFFFFFFFFFF",
"+	c #208120812081",
"@	c #2081B2CAAEBA",
"                       ..........                       ",
"                   ....XXXXXXXXXX....                   ",
"                ...XXXXXXXXXXXXXXXXXX...                ",
"              ..XXXXXXXXXXXXXXXXXXXXXXXX..              ",
"             .XXXXXXXXXXXXXXXXXXXXXXXXXXXXo             ",
"           ..XXXXXXXXXXOOOOOOOOOOXXXXXXXXXXoO           ",
"          .XXXXXXXXXOOO          OOOXXXXXXXXXO          ",
"         .XXXXXXXXOO                OOXXXXXXXXO         ",
"        .XXXXXXXOO                    OOXXXXXXXO        ",
"       .XXXXXXOO                        oXXXXXXXO       ",
"      .XXXXXXO                           o.XXXXXXO      ",
"     .XXXXXXO                              .XXXXXXO     ",
"     .XXXXXO                                .XXXXXO     ",
"    .XXXXXO                                  .XXXXXO    ",
"   .XXXXXO                                    .XXXXXO   ",
"   .XXXXXO                                    .XXXXXO   ",
"  .XXXXXO                                      .XXXXXO  ",
"  .XXXXO  ....................................  .XXXXO  ",
"  .XXXXO  .++++++++++++++++++++++++++++++++++O  .XXXXO  ",
" .XXXXXO  .++XXXX+++XXXX+++++++XXXX+++XXXX+++O  .XXXXXO ",
" .XXXXO   .+X++++X+X++++X++@++X++++X+X++++X++O   .XXXXO ",
" .XXXXO   .+X++++X+X++++X++@++X++++X+X++++X++O   .XXXXXO",
".XXXXXO   .+X++++X+X++++X+++++X++++X+X++++X++O   .XXXXXO",
".XXXXO    .++XXXX+++XXXX+++++++XXXX+++XXXX+++O    .XXXXO",
".XXXXO    .+X++++X+X++++X+++++X++++X+X++++X++O    .XXXXO",
".XXXXO    .+X++++X+X++++X++@++X++++X+X++++X++O    .XXXXO",
".XXXXO    .+X++++X+X++++X++@++X++++X+X++++X++O    .XXXXO",
".XXXXO    .++XXXX+++XXXX+++++++XXXX+++XXXX+++O    .XXXXO",
".XXXXO    .++++++++++++++++++++++++++++++++++O    .XXXXO",
".XXXXO    .++++++++++++++++++++++++++++++++++O    .XXXXO",
".OOOOO    .OOOOOOOOOOOOOOOOOOOOOOOOOOOOOOOOOOO    .OOOOO"};
