/* XPM */
static char * face_xpm[] = {
"64 64 6 1",
" 	c None",
".	c #00000000FFFF",
"X	c #000000000000",
"o	c #000049244103",
"O	c #FFFFFFFFFFFF",
"+	c #208120812081",
"                                                                ",
" .............................................................. ",
" .............................................................. ",
" .............................................................. ",
" ..........................XXXXXXXXXX.......................... ",
" ......................XXXXooooooooooXXXX...................... ",
" ...................XXXooooooooooooooooooXXX................... ",
" .................XXooooooooooooooooooooooooXX................. ",
" ................XooooooooooooooooooooooooooooX................ ",
" ..............XXooooooooooOOOOOOOOOOooooooooooXX.............. ",
" .............XoooooooooOOO..........OOOoooooooooO............. ",
" ............XooooooooOO................OOooooooooO............ ",
" ...........XoooooooOO....................OOoooooooO........... ",
" ..........XooooooOO........................OXooooooO.......... ",
" .........XooooooO............................XooooooO......... ",
" ........XooooooO..............................XooooooO........ ",
" ........XoooooO................................XoooooO........ ",
" .......XoooooO..................................XoooooO....... ",
" ......XoooooO....................................XoooooO...... ",
" ......XoooooO....................................XoooooO...... ",
" .....XoooooO......................................XoooooO..... ",
" .....XooooO..XXXXXXXXXXXXXXXXXXXXXXXXXXXXXXXXXXXX..XooooO..... ",
" .....XooooO..X++++++++++++++++++++++++++++++++++O..XooooO..... ",
" ....XoooooO..X++oooo+++oooo+++++++oooo+++oooo+++O..XoooooO.... ",
" ....XooooO...X+o++++o+o++++o++o++o++++o+o++++o++O...XooooO.... ",
" ....XooooO...X+o++++o+o++++o++o++o++++o+o++++o++O...XoooooO... ",
" ...XoooooO...X+o++++o+o++++o+++++o++++o+o++++o++O...XoooooO... ",
" ...XooooO....X++oooo+++oooo+++++++oooo+++oooo+++O....XooooO... ",
" ...XooooO....X+o++++o+o++++o+++++o++++o+o++++o++O....XooooO... ",
" ...XooooO....X+o++++o+o++++o++o++o++++o+o++++o++O....XooooO... ",
" ...XooooO....X+o++++o+o++++o++o++o++++o+o++++o++O....XooooO... ",
" ...XooooO....X++oooo+++oooo+++++++oooo+++oooo+++O....XooooO... ",
" ...XooooO....X++++++++++++++++++++++++++++++++++O....XooooO... ",
" ...XooooO....X++++++++++++++++++++++++++++++++++O....XooooO... ",
" ...XOOOOO....XOOOOOOOOOOOOOOOOOOOOOOOOOOOOOOOOOOO....XOOOOO... ",
" .............................................................. ",
" .............................................................. ",
" .............................................................. ",
" .............................................................. ",
" ...XXXXXXXXXXXXXXXXXXXXXXXXXXXXXXXXXXXXXXXXXXXXXXXXXXXXXXXX... ",
" ...X++++++++++++++++++++++++++++++++++++++++++++++++++++++O... ",
" ...X++++++++++++++++++++++++++++++++++++++++++++++++++++++O... ",
" ...X+++++++++++++++++++++++++++++ooooooooooooooooooooo++++O... ",
" ...X+++++++++++++++++++++o++++++o+++++++++++++++++++++o+++O... ",
" ...X++++++++++++++++++++ooo+++++o+++++++++++++++++++++o+++O... ",
" ...X+++++oooo++++++++++ooo+oo+++o++++ooo+++ooo+++o++++o+++O... ",
" ...X++++o+++ooo++++++++oo++++oo+o+o+o+++o+o+++o+o+o+o+ooo+O... ",
" ...X++++o+++o+++++++++ooo+++++++o+o+o+++o+o+++o++o+o++ooo+O... ",
" ...X++ooo+++o+++oo++++oo++++++++o++++ooo+++ooo++++o+++ooo+O... ",
" ...X+o++o+++ooo+++oo+ooo++++++++o+o+o+++o+o+++o++o+o++ooo+O... ",
" ...X+o+++oooo+++++++ooo+++++++++o+o+o+++o+o+++o+o+o+o+ooo+O... ",
" ...X+o+++++++++++++++o++++++++++o++++ooo+++ooo+++++o++o+++O... ",
" ...X+o++++++++++++++++++++++++++o+++++++++++++++++++++o+++O... ",
" ...X++++++++++++++++++++++++++++o+++++++++++++++++++++o+++O... ",
" ...X+++++++++++++++++++++++++++++ooooooooooooooooooooo++++O... ",
" ...X++++++++++++++++++++++++++++++++++++++++++++++++++++++O... ",
" ...X++++++++++++++++++++++++++++++++++++++++++++++++++++++O... ",
" ...X++++++++++++++++++++++++++++++++++++++++++++++++++++++O... ",
" ...XOOOOOOOOOOOOOOOOOOOOOOOOOOOOOOOOOOOOOOOOOOOOOOOOOOOOOOO... ",
" .............................................................. ",
" .............................................................. ",
" .............................................................. ",
" .............................................................. ",
"                                                                "};
